<?xml version="1.0" encoding="UTF-8"?>
<svg width="800px" height="800px" viewBox="0 0 800 800" version="1.1" xmlns="http://www.w3.org/2000/svg">
  <g fill="#FF3E41">
    <path d="M400,150 C444.18,150 480,185.82 480,230 C480,274.18 444.18,310 400,310 C355.82,310 320,274.18 320,230 C320,185.82 355.82,150 400,150 Z" />
    <path d="M269.55,380 C272.47,357.21 294.58,342.62 317.36,345.54 C340.15,348.46 354.74,370.58 351.82,393.36 C348.9,416.15 326.79,430.74 304,427.82 L389.98,630.17 L473.01,329.72 C482.11,328.95 489.11,336.5 487.38,345.51 L383.04,718.09 C381.83,724.28 375.39,728.17 369.19,726.95 C364.13,725.96 360.26,721.66 359.82,716.51 L359.86,716.29 L274.93,397.6 C269.01,394.07 266.63,386.88 269.55,380 Z" />
    <path d="M561.64,329.87 C563.83,306.94 584.48,291 607.41,293.18 C630.34,295.37 646.29,316.02 644.1,338.95 C641.92,361.88 621.27,377.83 598.34,375.64 L536.2,418.39 L563.29,549.93 C565.48,563.71 556,576.77 542.22,578.96 C528.43,581.15 515.38,571.67 513.19,557.89 L481.91,408.05 C480.44,399.68 484.65,391.4 492.05,387.35 L561.64,329.87 Z" />
    <path d="M394.69,693.58 C482.33,693.58 599.66,687.62 650.42,678.78 C682.37,673.42 716.89,668.1 699.68,658.7 C682.48,649.28 615.94,622.04 400,603.7 C184.06,622.04 117.52,649.28 100.32,658.7 C83.11,668.1 117.63,673.42 149.58,678.78 C200.34,687.62 307.05,693.58 394.69,693.58 Z" />
  </g>
</svg>
