<?xml version="1.0" encoding="UTF-8" standalone="no"?>
<svg xmlns="http://www.w3.org/2000/svg" viewBox="0 0 500 500" width="100%" height="100%">
  <g transform="translate(0,0)">
    <path fill="#FF4D4D" d="M241.5,99.1c0,23.4-19,42.4-42.4,42.4s-42.4-19-42.4-42.4c0-23.4,19-42.4,42.4-42.4
      S241.5,75.7,241.5,99.1z M267.9,209.6c-4.7-9.1-11.8-12.5-18.9-12.5c-5.7,0-11.4,2.2-15.6,4c-23,9.8-46.1,19.6-69.1,29.4
      c-13.4,5.7-21,23.5-12.6,38.1c6.9,11.9,21.5,17.3,34.4,9.2c22.1-13.8,44.2-27.6,66.3-41.4c0.3-0.2,0.6-0.3,0.9-0.5
      c-19.2,58.4-38.3,116.8-57.5,175.2c-3.3,10.1-2.7,19.9,2.9,28.8c8.2,12.9,23.7,16.6,36.9,8.9c11.5-6.7,15.3-21.8,10.1-33.5
      c-15.9-49.1-31.9-98.1-47.8-147.2c3.8-1.2,7.7-2.4,11.5-3.6c14.2,43.2,28.4,86.4,42.6,129.6c3.5,10.5,11.3,17.2,22.5,18.8
      c16.7,2.3,31-9.2,31.7-25.8c-0.4-5.7-2.2-11.3-4.2-16.5c-16.8-44.3-33.7-88.6-50.5-132.9C267.7,223,271.3,216.1,267.9,209.6z"/>
    <path fill="#FF4D4D" d="M118.1,375.9c10.9,33,23.6,58,99.8,58c91.2,0,111.5-35.3,121.8-58c12.6-27.9-169.4-42.6-221.6,0Z"/>
  </g>
</svg>
